<svg width="24" height="24" viewBox="0 0 24 24" fill="none" xmlns="http://www.w3.org/2000/svg">
<rect width="24" height="24" fill="white"/>
<path d="M14.4 7.83333C14.4 7.61232 14.4843 7.40036 14.6343 7.24408C14.7843 7.0878 14.9878 7 15.2 7C15.4122 7 15.6157 7.0878 15.7657 7.24408C15.9157 7.40036 16 7.61232 16 7.83333V16.1667C16 16.3877 15.9157 16.5996 15.7657 16.7559C15.6157 16.9122 15.4122 17 15.2 17C14.9878 17 14.7843 16.9122 14.6343 16.7559C14.4843 16.5996 14.4 16.3877 14.4 16.1667V7.83333ZM8 7.83333C8 7.61232 8.08429 7.40036 8.23431 7.24408C8.38434 7.0878 8.58783 7 8.8 7C9.01217 7 9.21566 7.0878 9.36569 7.24408C9.51571 7.40036 9.6 7.61232 9.6 7.83333V16.1667C9.6 16.3877 9.51571 16.5996 9.36569 16.7559C9.21566 16.9122 9.01217 17 8.8 17C8.58783 17 8.38434 16.9122 8.23431 16.7559C8.08429 16.5996 8 16.3877 8 16.1667V7.83333Z" fill="black"/>
</svg>
